<?xml version="1.0" encoding="UTF-8"?>
<svg width="100" height="100" viewBox="0 0 100 100" xmlns="http://www.w3.org/2000/svg">
  <!-- Bear Body -->
  <ellipse cx="50" cy="60" rx="30" ry="25" fill="#8B4513"/>
  
  <!-- Bear Head -->
  <circle cx="50" cy="30" r="20" fill="#8B4513"/>
  
  <!-- Bear Ears -->
  <circle cx="35" cy="15" r="8" fill="#8B4513"/>
  <circle cx="65" cy="15" r="8" fill="#8B4513"/>
  <circle cx="35" cy="15" r="4" fill="#FFC0CB"/>
  <circle cx="65" cy="15" r="4" fill="#FFC0CB"/>
  
  <!-- Bear Face -->
  <ellipse cx="42" cy="28" rx="3" ry="4" fill="#FFFFFF"/>
  <ellipse cx="58" cy="28" rx="3" ry="4" fill="#FFFFFF"/>
  <ellipse cx="42" cy="28" rx="1.5" ry="2" fill="#000000"/>
  <ellipse cx="58" cy="28" rx="1.5" ry="2" fill="#000000"/>
  
  <!-- Bear Nose -->
  <ellipse cx="50" cy="35" rx="6" ry="4" fill="#000000"/>
  
  <!-- Bear Mouth -->
  <path d="M45,40 Q50,45 55,40" stroke="#000000" stroke-width="1" fill="none"/>
  
  <!-- Bear Arms -->
  <ellipse cx="25" cy="60" rx="10" ry="7" fill="#8B4513"/>
  <ellipse cx="75" cy="60" rx="10" ry="7" fill="#8B4513"/>
  
  <!-- Bear Legs -->
  <ellipse cx="35" cy="80" rx="8" ry="5" fill="#8B4513"/>
  <ellipse cx="65" cy="80" rx="8" ry="5" fill="#8B4513"/>
</svg>