<?xml version="1.0" encoding="UTF-8"?>
<svg width="100" height="100" viewBox="0 0 100 100" xmlns="http://www.w3.org/2000/svg">
  <!-- Monkey Body -->
  <ellipse cx="50" cy="60" rx="25" ry="20" fill="#8B4513"/>
  
  <!-- Monkey Head -->
  <circle cx="50" cy="30" r="20" fill="#8B4513"/>
  
  <!-- Monkey Face -->
  <ellipse cx="50" cy="30" rx="15" ry="15" fill="#E0B880"/>
  
  <!-- Monkey Ears -->
  <circle cx="30" cy="20" r="10" fill="#8B4513"/>
  <circle cx="70" cy="20" r="10" fill="#8B4513"/>
  
  <!-- Monkey Eyes -->
  <ellipse cx="42" cy="25" rx="3" ry="4" fill="#FFFFFF"/>
  <ellipse cx="58" cy="25" rx="3" ry="4" fill="#FFFFFF"/>
  <ellipse cx="42" cy="25" rx="1.5" ry="2" fill="#000000"/>
  <ellipse cx="58" cy="25" rx="1.5" ry="2" fill="#000000"/>
  
  <!-- Monkey Nose -->
  <ellipse cx="50" cy="35" rx="5" ry="3" fill="#000000"/>
  
  <!-- Monkey Mouth -->
  <path d="M45,40 Q50,45 55,40" stroke="#000000" stroke-width="1" fill="none"/>
  
  <!-- Monkey Arms -->
  <path d="M25,60 Q15,50 20,40" stroke="#8B4513" stroke-width="5" fill="none"/>
  <path d="M75,60 Q85,50 80,40" stroke="#8B4513" stroke-width="5" fill="none"/>
  
  <!-- Monkey Legs -->
  <path d="M40,80 Q35,90 30,95" stroke="#8B4513" stroke-width="5" fill="none"/>
  <path d="M60,80 Q65,90 70,95" stroke="#8B4513" stroke-width="5" fill="none"/>
  
  <!-- Monkey Tail -->
  <path d="M50,80 Q60,90 70,85 Q80,80 75,70" stroke="#8B4513" stroke-width="5" fill="none"/>
</svg>