<?xml version="1.0" encoding="UTF-8"?>
<svg width="100" height="100" viewBox="0 0 100 100" xmlns="http://www.w3.org/2000/svg">
  <!-- Pig Body -->
  <ellipse cx="50" cy="55" rx="30" ry="25" fill="#FFB6C1"/>
  
  <!-- Pig Head -->
  <circle cx="50" cy="35" r="20" fill="#FFB6C1"/>
  
  <!-- Pig Ears -->
  <ellipse cx="35" cy="20" rx="8" ry="10" fill="#FF9999"/>
  <ellipse cx="65" cy="20" rx="8" ry="10" fill="#FF9999"/>
  
  <!-- Pig Eyes -->
  <ellipse cx="42" cy="30" rx="3" ry="4" fill="#FFFFFF"/>
  <ellipse cx="58" cy="30" rx="3" ry="4" fill="#FFFFFF"/>
  <ellipse cx="42" cy="30" rx="1.5" ry="2" fill="#000000"/>
  <ellipse cx="58" cy="30" rx="1.5" ry="2" fill="#000000"/>
  
  <!-- Pig Nose -->
  <ellipse cx="50" cy="40" rx="10" ry="7" fill="#FF7F7F"/>
  <circle cx="45" cy="40" r="2" fill="#000000"/>
  <circle cx="55" cy="40" r="2" fill="#000000"/>
  
  <!-- Pig Tail -->
  <path d="M75,55 Q85,60 85,50 Q85,40 80,45" stroke="#FFB6C1" stroke-width="4" fill="none"/>
  
  <!-- Pig Legs -->
  <rect x="35" y="75" width="5" height="10" fill="#FFB6C1"/>
  <rect x="45" y="75" width="5" height="10" fill="#FFB6C1"/>
  <rect x="55" y="75" width="5" height="10" fill="#FFB6C1"/>
  <rect x="65" y="75" width="5" height="10" fill="#FFB6C1"/>
</svg>