<svg xmlns="http://www.w3.org/2000/svg" width="150" height="150" viewBox="0 0 150 150">
  <!-- Pig character for loading animation -->
  <g id="pig-character">
    <!-- Body -->
    <ellipse cx="75" cy="90" rx="40" ry="30" fill="#ffb6c1" />
    
    <!-- Head -->
    <circle cx="75" cy="60" r="30" fill="#ffb6c1" />
    
    <!-- Ears -->
    <ellipse cx="55" cy="40" rx="10" ry="15" fill="#ffb6c1" transform="rotate(-20, 55, 40)" />
    <ellipse cx="95" cy="40" rx="10" ry="15" fill="#ffb6c1" transform="rotate(20, 95, 40)" />
    <ellipse cx="55" cy="40" rx="7" ry="12" fill="#ff9eb1" transform="rotate(-20, 55, 40)" />
    <ellipse cx="95" cy="40" rx="7" ry="12" fill="#ff9eb1" transform="rotate(20, 95, 40)" />
    
    <!-- Eyes -->
    <g id="eyes">
      <circle cx="60" cy="60" r="7" fill="#ffffff" />
      <circle cx="90" cy="60" r="7" fill="#ffffff" />
      <circle cx="60" cy="60" r="3" fill="#000000" />
      <circle cx="90" cy="60" r="3" fill="#000000" />
    </g>
    
    <!-- Nose -->
    <ellipse cx="75" cy="70" rx="15" ry="10" fill="#ff9eb1" />
    <circle cx="70" cy="70" r="3" fill="#000000" />
    <circle cx="80" cy="70" r="3" fill="#000000" />
    
    <!-- Mouth -->
    <path d="M65,80 Q75,85 85,80" fill="none" stroke="#000000" stroke-width="2" />
    
    <!-- Tail -->
    <path d="M35,90 Q25,80 35,70" fill="none" stroke="#ffb6c1" stroke-width="5" stroke-linecap="round" />
    
    <!-- Legs -->
    <rect x="50" y="110" width="10" height="20" rx="5" fill="#ffb6c1" />
    <rect x="90" y="110" width="10" height="20" rx="5" fill="#ffb6c1" />
    
    <!-- Arms -->
    <rect x="40" y="80" width="10" height="25" rx="5" fill="#ffb6c1" transform="rotate(30, 40, 80)" />
    <rect x="100" y="80" width="10" height="25" rx="5" fill="#ffb6c1" transform="rotate(-30, 100, 80)" />
  </g>
</svg>
