<?xml version="1.0" encoding="UTF-8" standalone="no"?>
<svg width="1200" height="800" viewBox="0 0 1200 800" xmlns="http://www.w3.org/2000/svg">
  <!-- Background gradient -->
  <defs>
    <linearGradient id="bg-gradient" x1="0%" y1="0%" x2="100%" y2="100%">
      <stop offset="0%" stop-color="#f8f3ff" />
      <stop offset="100%" stop-color="#ffe8f4" />
    </linearGradient>
    
    <!-- Cloud pattern -->
    <pattern id="cloud-pattern" width="400" height="400" patternUnits="userSpaceOnUse">
      <!-- Cloud 1 -->
      <path d="M80,100 Q95,70 120,85 Q140,65 160,85 Q180,70 200,85 Q215,75 230,90 Q230,110 210,115 Q215,125 195,130 Q175,150 145,125 Q130,140 110,130 Q90,140 80,120 Q65,120 70,105 Q65,90 80,100 Z" fill="#ffffff" opacity="0.7" />
      
      <!-- Cloud 2 -->
      <path d="M280,200 Q295,170 320,185 Q340,165 360,185 Q380,170 400,185 Q415,175 430,190 Q430,210 410,215 Q415,225 395,230 Q375,250 345,225 Q330,240 310,230 Q290,240 280,220 Q265,220 270,205 Q265,190 280,200 Z" fill="#ffffff" opacity="0.6" />
      
      <!-- Cloud 3 -->
      <path d="M180,300 Q195,270 220,285 Q240,265 260,285 Q280,270 300,285 Q315,275 330,290 Q330,310 310,315 Q315,325 295,330 Q275,350 245,325 Q230,340 210,330 Q190,340 180,320 Q165,320 170,305 Q165,290 180,300 Z" fill="#ffffff" opacity="0.7" />
    </pattern>
    
    <!-- Stars pattern -->
    <pattern id="star-pattern" width="300" height="300" patternUnits="userSpaceOnUse">
      <!-- Star 1 -->
      <path d="M50,50 L53,58 L62,58 L55,64 L57,72 L50,68 L43,72 L45,64 L38,58 L47,58 L50,50 Z" fill="#ffda9e" opacity="0.8" />
      
      <!-- Star 2 -->
      <path d="M150,100 L153,108 L162,108 L155,114 L157,122 L150,118 L143,122 L145,114 L138,108 L147,108 L150,100 Z" fill="#ffd1f5" opacity="0.6" />
      
      <!-- Star 3 -->
      <path d="M250,50 L253,58 L262,58 L255,64 L257,72 L250,68 L243,72 L245,64 L238,58 L247,58 L250,50 Z" fill="#d1f8ff" opacity="0.7" />
      
      <!-- Star 4 -->
      <path d="M80,180 L83,188 L92,188 L85,194 L87,202 L80,198 L73,202 L75,194 L68,188 L77,188 L80,180 Z" fill="#ffc8c8" opacity="0.6" />
      
      <!-- Star 5 -->
      <path d="M200,230 L203,238 L212,238 L205,244 L207,252 L200,248 L193,252 L195,244 L188,238 L197,238 L200,230 Z" fill="#d5ffcb" opacity="0.7" />
    </pattern>
    
    <!-- Rainbow pattern -->
    <pattern id="rainbow-pattern" width="1200" height="800" patternUnits="userSpaceOnUse">
      <path d="M-100,900 Q600,-100 1300,900" stroke="#ff9eb5" stroke-width="20" fill="none" opacity="0.3" />
      <path d="M-100,930 Q600,-70 1300,930" stroke="#ffca85" stroke-width="20" fill="none" opacity="0.3" />
      <path d="M-100,960 Q600,-40 1300,960" stroke="#fff493" stroke-width="20" fill="none" opacity="0.3" />
      <path d="M-100,990 Q600,-10 1300,990" stroke="#b6f993" stroke-width="20" fill="none" opacity="0.3" />
      <path d="M-100,1020 Q600,20 1300,1020" stroke="#93e4ff" stroke-width="20" fill="none" opacity="0.3" />
      <path d="M-100,1050 Q600,50 1300,1050" stroke="#c4a5ff" stroke-width="20" fill="none" opacity="0.3" />
    </pattern>
    
    <!-- Bubble pattern -->
    <pattern id="bubble-pattern" width="500" height="500" patternUnits="userSpaceOnUse">
      <!-- Bubble 1 -->
      <circle cx="100" cy="100" r="15" fill="#ffffff" opacity="0.4" />
      
      <!-- Bubble 2 -->
      <circle cx="300" cy="150" r="10" fill="#ffffff" opacity="0.4" />
      
      <!-- Bubble 3 -->
      <circle cx="400" cy="300" r="12" fill="#ffffff" opacity="0.4" />
      
      <!-- Bubble 4 -->
      <circle cx="150" cy="350" r="8" fill="#ffffff" opacity="0.4" />
      
      <!-- Bubble 5 -->
      <circle cx="250" cy="450" r="15" fill="#ffffff" opacity="0.4" />
      
      <!-- Bubble 6 -->
      <circle cx="450" cy="50" r="10" fill="#ffffff" opacity="0.4" />
    </pattern>
  </defs>
  
  <!-- Main background -->
  <rect width="100%" height="100%" fill="url(#bg-gradient)" />
  
  <!-- Decorative elements -->
  <rect width="100%" height="100%" fill="url(#rainbow-pattern)" />
  <rect width="100%" height="100%" fill="url(#cloud-pattern)" />
  <rect width="100%" height="100%" fill="url(#star-pattern)" />
  <rect width="100%" height="100%" fill="url(#bubble-pattern)" />
  
  <!-- Children silhouettes at the bottom -->
  <g transform="translate(50, 650)" opacity="0.6">
    <path d="M20,100 C30,40 60,40 70,100" stroke="#8067DE" stroke-width="4" fill="none"/>
    <circle cx="50" cy="30" r="20" fill="#8067DE" />
  </g>
  
  <g transform="translate(150, 670)" opacity="0.6">
    <path d="M20,80 C30,30 60,30 70,80" stroke="#FF6B98" stroke-width="4" fill="none"/>
    <circle cx="45" cy="25" r="16" fill="#FF6B98" />
  </g>
  
  <g transform="translate(250, 660)" opacity="0.6">
    <path d="M20,90 C30,35 60,35 70,90" stroke="#6BCEFF" stroke-width="4" fill="none"/>
    <circle cx="45" cy="28" r="18" fill="#6BCEFF" />
  </g>
  
  <g transform="translate(850, 665)" opacity="0.6">
    <path d="M20,85 C30,35 60,35 70,85" stroke="#FFB16B" stroke-width="4" fill="none"/>
    <circle cx="45" cy="28" r="18" fill="#FFB16B" />
  </g>
  
  <g transform="translate(950, 655)" opacity="0.6">
    <path d="M20,95 C30,40 60,40 70,95" stroke="#85DE67" stroke-width="4" fill="none"/>
    <circle cx="45" cy="30" r="20" fill="#85DE67" />
  </g>
  
  <g transform="translate(1050, 670)" opacity="0.6">
    <path d="M20,80 C30,30 60,30 70,80" stroke="#DE67C8" stroke-width="4" fill="none"/>
    <circle cx="45" cy="25" r="16" fill="#DE67C8" />
  </g>
</svg>