<?xml version="1.0" encoding="UTF-8" standalone="no"?>
<svg width="20px" height="20px" viewBox="0 0 46 46" version="1.1" xmlns="http://www.w3.org/2000/svg" xmlns:xlink="http://www.w3.org/1999/xlink">
    <title>Google Logo</title>
    <defs></defs>
    <g id="google-logo" stroke="none" stroke-width="1" fill="none" fill-rule="evenodd">
        <path d="M9.827,24.031 C9.827,20.991 12.217,18.601 15.257,18.601 C16.753,18.601 18.018,19.116 18.977,20.034 L17.313,21.698 C16.735,21.120 16.006,20.816 15.257,20.816 C13.435,20.816 12.042,22.230 12.042,24.031 C12.042,25.832 13.435,27.246 15.257,27.246 C16.341,27.246 17.208,26.703 17.584,25.876 L17.584,25.198 L15.257,25.198 L15.257,23.013 L19.788,23.013 L19.788,25.876 C19.214,27.759 17.524,29.461 15.257,29.461 C12.217,29.461 9.827,27.071 9.827,24.031" id="Fill-1" fill="#4285F4"></path>
        <path d="M24.647,24.031 C24.647,22.209 26.061,20.816 27.881,20.816 C29.702,20.816 31.116,22.209 31.116,24.031 C31.116,25.853 29.702,27.246 27.881,27.246 C26.061,27.246 24.647,25.853 24.647,24.031 L24.647,24.031 Z M22.432,24.031 C22.432,27.071 24.841,29.461 27.881,29.461 C30.921,29.461 33.331,27.071 33.331,24.031 C33.331,20.991 30.921,18.601 27.881,18.601 C24.841,18.601 22.432,20.991 22.432,24.031 L22.432,24.031 Z" id="Fill-2" fill="#DB4437"></path>
        <path d="M36.370,24.031 C36.370,22.209 37.784,20.816 39.605,20.816 C41.426,20.816 42.840,22.209 42.840,24.031 C42.840,25.853 41.426,27.246 39.605,27.246 C37.784,27.246 36.370,25.853 36.370,24.031 L36.370,24.031 Z M34.155,24.031 C34.155,27.071 36.565,29.461 39.605,29.461 C42.645,29.461 45.055,27.071 45.055,24.031 C45.055,20.991 42.645,18.601 39.605,18.601 C36.565,18.601 34.155,20.991 34.155,24.031 L34.155,24.031 Z" id="Fill-3" fill="#F4B400"></path>
        <path d="M0.972,24.031 C0.972,27.071 3.381,29.461 6.421,29.461 C9.461,29.461 11.869,27.071 11.869,24.031 C11.869,20.991 9.461,18.601 6.421,18.601 C3.381,18.601 0.972,20.991 0.972,24.031 L0.972,24.031 Z M3.187,24.031 C3.187,22.209 4.600,20.816 6.421,20.816 C8.242,20.816 9.654,22.209 9.654,24.031 C9.654,25.853 8.242,27.246 6.421,27.246 C4.600,27.246 3.187,25.853 3.187,24.031 L3.187,24.031 Z" id="Fill-4" fill="#0F9D58"></path>
    </g>
</svg>