<svg xmlns="http://www.w3.org/2000/svg" width="150" height="150" viewBox="0 0 150 150">
  <rect width="150" height="150" fill="#f8f8f8" rx="10" ry="10"/>
  
  <!-- Puzzle pieces -->
  <path d="M25,25 L65,25 C65,15 75,15 75,25 L75,65 C85,65 85,75 75,75 L25,75 Z" fill="#8a5fff"/>
  
  <path d="M85,25 L125,25 L125,75 C115,75 115,85 125,85 L85,85 C85,95 75,95 75,85 L75,75 C85,75 85,65 75,65 L75,25 C75,15 85,15 85,25 Z" fill="#ff6b6b"/>
  
  <path d="M25,85 L75,85 C75,95 85,95 85,85 L125,85 C125,95 125,105 115,105 L85,105 L85,125 L25,125 Z" fill="#4CAF50"/>
</svg>
