<svg xmlns="http://www.w3.org/2000/svg" width="800" height="600" viewBox="0 0 800 600">
  <g id="castle-background">
    <!-- Sky gradient -->
    <defs>
      <linearGradient id="sky-gradient" x1="0%" y1="0%" x2="0%" y2="100%">
        <stop offset="0%" style="stop-color:#e6e6ff;stop-opacity:1" />
        <stop offset="100%" style="stop-color:#f9f7ff;stop-opacity:1" />
      </linearGradient>
    </defs>
    <rect width="800" height="600" fill="url(#sky-gradient)" />
    
    <!-- Clouds -->
    <g id="clouds" opacity="0.8">
      <ellipse cx="150" cy="120" rx="60" ry="30" fill="#ffffff" />
      <ellipse cx="180" cy="100" rx="50" ry="25" fill="#ffffff" />
      <ellipse cx="210" cy="120" rx="40" ry="20" fill="#ffffff" />
      
      <ellipse cx="600" cy="80" rx="70" ry="35" fill="#ffffff" />
      <ellipse cx="650" cy="90" rx="50" ry="25" fill="#ffffff" />
      <ellipse cx="680" cy="70" rx="40" ry="20" fill="#ffffff" />
      
      <ellipse cx="400" cy="150" rx="50" ry="25" fill="#ffffff" />
      <ellipse cx="430" cy="140" rx="40" ry="20" fill="#ffffff" />
      <ellipse cx="460" cy="160" rx="30" ry="15" fill="#ffffff" />
    </g>
    
    <!-- Castle -->
    <g id="castle" transform="translate(200, 200)">
      <!-- Main building -->
      <rect x="100" y="100" width="200" height="250" fill="#6a3093" stroke="#56277a" stroke-width="5" />
      
      <!-- Castle towers -->
      <g id="left-tower">
        <rect x="50" y="150" width="50" height="200" fill="#8a5fff" stroke="#56277a" stroke-width="5" />
        <polygon points="40,150 110,150 75,100" fill="#8a5fff" stroke="#56277a" stroke-width="5" />
        <rect x="60" y="120" width="30" height="30" fill="#c0b0d8" stroke="#56277a" stroke-width="3" />
      </g>
      
      <g id="right-tower">
        <rect x="300" y="150" width="50" height="200" fill="#8a5fff" stroke="#56277a" stroke-width="5" />
        <polygon points="290,150 360,150 325,100" fill="#8a5fff" stroke="#56277a" stroke-width="5" />
        <rect x="310" y="120" width="30" height="30" fill="#c0b0d8" stroke="#56277a" stroke-width="3" />
      </g>
      
      <g id="middle-tower">
        <rect x="175" y="50" width="50" height="50" fill="#8a5fff" stroke="#56277a" stroke-width="5" />
        <polygon points="165,50 235,50 200,10" fill="#8a5fff" stroke="#56277a" stroke-width="5" />
        <rect x="185" y="20" width="30" height="30" fill="#c0b0d8" stroke="#56277a" stroke-width="3" />
      </g>
      
      <!-- Castle gate -->
      <path d="M175,250 C175,200 225,200 225,250 L225,350 L175,350 Z" fill="#c0b0d8" stroke="#56277a" stroke-width="5" />
      
      <!-- Castle windows -->
      <rect x="125" y="150" width="30" height="40" rx="15" ry="15" fill="#c0b0d8" stroke="#56277a" stroke-width="3" />
      <rect x="245" y="150" width="30" height="40" rx="15" ry="15" fill="#c0b0d8" stroke="#56277a" stroke-width="3" />
      <rect x="125" y="220" width="30" height="40" rx="15" ry="15" fill="#c0b0d8" stroke="#56277a" stroke-width="3" />
      <rect x="245" y="220" width="30" height="40" rx="15" ry="15" fill="#c0b0d8" stroke="#56277a" stroke-width="3" />
      
      <!-- Castle flags -->
      <line x1="75" y1="100" x2="75" y2="50" stroke="#56277a" stroke-width="3" />
      <polygon points="75,50 105,60 75,70" fill="#ffd700" stroke="#56277a" stroke-width="2" />
      
      <line x1="325" y1="100" x2="325" y2="50" stroke="#56277a" stroke-width="3" />
      <polygon points="325,50 355,60 325,70" fill="#ffd700" stroke="#56277a" stroke-width="2" />
      
      <line x1="200" y1="10" x2="200" y2="-20" stroke="#56277a" stroke-width="3" />
      <polygon points="200,-20 230,-10 200,0" fill="#ffd700" stroke="#56277a" stroke-width="2" />
    </g>
    
    <!-- Ground -->
    <path d="M0,500 C100,480 200,520 300,490 C400,460 500,510 600,480 C700,450 800,490 800,500 L800,600 L0,600 Z" fill="#a9d18e" stroke="#56277a" stroke-width="2" />
    
    <!-- Flowers -->
    <g id="flowers">
      <circle cx="150" cy="520" r="5" fill="#ff6b6b" />
      <circle cx="155" cy="515" r="5" fill="#ff6b6b" />
      <circle cx="145" cy="515" r="5" fill="#ff6b6b" />
      <circle cx="150" cy="510" r="5" fill="#ff6b6b" />
      <circle cx="150" cy="515" r="3" fill="#ffd700" />
      
      <circle cx="650" cy="510" r="5" fill="#ff6b6b" />
      <circle cx="655" cy="505" r="5" fill="#ff6b6b" />
      <circle cx="645" cy="505" r="5" fill="#ff6b6b" />
      <circle cx="650" cy="500" r="5" fill="#ff6b6b" />
      <circle cx="650" cy="505" r="3" fill="#ffd700" />
      
      <circle cx="350" cy="530" r="5" fill="#8a5fff" />
      <circle cx="355" cy="525" r="5" fill="#8a5fff" />
      <circle cx="345" cy="525" r="5" fill="#8a5fff" />
      <circle cx="350" cy="520" r="5" fill="#8a5fff" />
      <circle cx="350" cy="525" r="3" fill="#ffd700" />
      
      <circle cx="450" cy="500" r="5" fill="#8a5fff" />
      <circle cx="455" cy="495" r="5" fill="#8a5fff" />
      <circle cx="445" cy="495" r="5" fill="#8a5fff" />
      <circle cx="450" cy="490" r="5" fill="#8a5fff" />
      <circle cx="450" cy="495" r="3" fill="#ffd700" />
    </g>
  </g>
</svg>
