<?xml version="1.0" encoding="UTF-8" standalone="no"?>
<svg width="20px" height="20px" viewBox="0 0 46 46" version="1.1" xmlns="http://www.w3.org/2000/svg" xmlns:xlink="http://www.w3.org/1999/xlink">
    <title>Google Logo</title>
    <g>
        <path fill="#4285F4" d="M45.12,18.5H24v8.5h11.84c-1.11,5.37-5.72,8.5-11.84,8.5c-7.18,0-13-5.82-13-13c0-7.18,5.82-13,13-13c3.09,0,5.87,1.09,8.06,2.92l6.43-6.43C34.1,2.09,29.32,0,24,0C10.75,0,0,10.75,0,24s10.75,24,24,24c12.02,0,22.5-8.55,22.5-22.5C46.5,23.59,45.93,20.95,45.12,18.5z"></path>
        <path fill="#34A853" d="M3,18.5h8l0,0c1.48-5.55,6.5-9.5,13-9.5c3.09,0,5.87,1.09,8.06,2.92L38.5,5.5C34.1,2.09,29.32,0,24,0C13.46,0,4.59,6.76,3,18.5z"></path>
        <path fill="#FBBC05" d="M24,46c5.32,0,10.1-2.09,14.5-5.5l-6.43-6.43c-2.05,1.68-4.64,2.92-8.07,2.92c-6.14,0-11.35-4.15-13.16-9.55l0,0H3.14v6.64C7.73,40.89,15.27,46,24,46z"></path>
        <path fill="#EA4335" d="M3,24c0-2.24,0.37-4.39,1.05-6.39V10.97H3.14C1.1,14.93,0,19.33,0,24c0,4.67,1.1,9.07,3.14,13.03l0,0h7.86l0,0C4.48,35.45,3,29.93,3,24z"></path>
    </g>
</svg>