<svg xmlns="http://www.w3.org/2000/svg" width="400" height="300" viewBox="0 0 400 300">
  <!-- Castle background -->
  <rect x="0" y="0" width="400" height="300" fill="#f5f0ff" rx="10" ry="10" />
  
  <!-- Castle main structure -->
  <rect x="100" y="100" width="200" height="150" fill="#8a5fff" rx="5" ry="5" />
  
  <!-- Castle towers -->
  <rect x="80" y="80" width="40" height="170" fill="#6a3093" rx="10" ry="10" />
  <rect x="280" y="80" width="40" height="170" fill="#6a3093" rx="10" ry="10" />
  
  <!-- Tower tops -->
  <polygon points="80,80 100,50 120,80" fill="#ff8c00" />
  <polygon points="280,80 300,50 320,80" fill="#ff8c00" />
  
  <!-- Castle gate -->
  <rect x="175" y="180" width="50" height="70" fill="#ffc107" rx="10" ry="10" />
  
  <!-- Castle windows -->
  <rect x="120" y="130" width="30" height="30" fill="#e0d3f5" rx="5" ry="5" />
  <rect x="250" y="130" width="30" height="30" fill="#e0d3f5" rx="5" ry="5" />
  
  <!-- Main castle top -->
  <path d="M100,100 L150,70 L200,50 L250,70 L300,100" fill="none" stroke="#ff8c00" stroke-width="10" />
  
  <!-- Flags -->
  <polygon points="100,50 100,30 120,40 100,50" fill="#ffd700" />
  <polygon points="300,50 300,30 280,40 300,50" fill="#ffd700" />
  
  <!-- Clouds -->
  <circle cx="70" cy="40" r="20" fill="white" opacity="0.7" />
  <circle cx="90" cy="30" r="25" fill="white" opacity="0.7" />
  <circle cx="110" cy="45" r="15" fill="white" opacity="0.7" />
  
  <circle cx="330" cy="50" r="20" fill="white" opacity="0.7" />
  <circle cx="350" cy="40" r="25" fill="white" opacity="0.7" />
  <circle cx="310" cy="35" r="15" fill="white" opacity="0.7" />
</svg>
