<?xml version="1.0" encoding="UTF-8" standalone="no"?>
<svg width="1200" height="800" viewBox="0 0 1200 800" xmlns="http://www.w3.org/2000/svg">
  <!-- Night sky gradient background with enhanced depth -->
  <defs>
    <linearGradient id="skyGradient" x1="0%" y1="0%" x2="0%" y2="100%">
      <stop offset="0%" stop-color="#060D30" />
      <stop offset="30%" stop-color="#0F1E4A" />
      <stop offset="70%" stop-color="#1B2A5E" />
      <stop offset="100%" stop-color="#2B3F70" />
    </linearGradient>
    
    <!-- Enhanced moon glow with more depth -->
    <radialGradient id="moonGlow" cx="80%" cy="25%" r="25%" fx="80%" fy="25%">
      <stop offset="0%" stop-color="#FFFDE7" stop-opacity="0.8"/>
      <stop offset="30%" stop-color="#FFFDE7" stop-opacity="0.3"/>
      <stop offset="100%" stop-color="#FFFDE7" stop-opacity="0"/>
    </radialGradient>
    
    <!-- Falling star gradients -->
    <linearGradient id="star1" x1="0%" y1="0%" x2="100%" y2="100%">
      <stop offset="0%" stop-color="#FFFFFF" stop-opacity="1"/>
      <stop offset="60%" stop-color="#64B5F6" stop-opacity="0.6"/>
      <stop offset="100%" stop-color="#FFFFFF" stop-opacity="0"/>
    </linearGradient>
    
    <linearGradient id="star2" x1="0%" y1="0%" x2="100%" y2="100%">
      <stop offset="0%" stop-color="#FFFFFF" stop-opacity="1"/>
      <stop offset="50%" stop-color="#90CAF9" stop-opacity="0.7"/>
      <stop offset="100%" stop-color="#FFFFFF" stop-opacity="0"/>
    </linearGradient>

    <!-- 3D Tower shadowing -->
    <linearGradient id="towerRight" x1="0%" y1="0%" x2="100%" y2="0%">
      <stop offset="0%" stop-color="#0B1326"/>
      <stop offset="100%" stop-color="#16233F"/>
    </linearGradient>
    
    <linearGradient id="towerLeft" x1="0%" y1="0%" x2="100%" y2="0%">
      <stop offset="0%" stop-color="#071020"/>
      <stop offset="100%" stop-color="#0B1326"/>
    </linearGradient>
    
    <linearGradient id="keepFront" x1="0%" y1="0%" x2="0%" y2="100%">
      <stop offset="0%" stop-color="#16233F"/>
      <stop offset="100%" stop-color="#0B1326"/>
    </linearGradient>

    <!-- Mountain depth effects -->
    <linearGradient id="farMountains" x1="0%" y1="0%" x2="0%" y2="100%">
      <stop offset="0%" stop-color="#243551"/>
      <stop offset="100%" stop-color="#1F2D42"/>
    </linearGradient>
    
    <linearGradient id="nearMountains" x1="0%" y1="0%" x2="0%" y2="100%">
      <stop offset="0%" stop-color="#1C2B44"/>
      <stop offset="100%" stop-color="#162238"/>
    </linearGradient>
    
    <!-- Star twinkle animation -->
    <filter id="glow">
      <feGaussianBlur stdDeviation="2.5" result="blur"/>
      <feComposite in="SourceGraphic" in2="blur" operator="over"/>
    </filter>
    
    <!-- Animated fog -->
    <filter id="fog">
      <feTurbulence type="fractalNoise" baseFrequency="0.01" numOctaves="2" seed="5"/>
      <feDisplacementMap in="SourceGraphic" scale="10"/>
    </filter>
  </defs>
  
  <!-- Sky background with depth -->
  <rect width="1200" height="800" fill="url(#skyGradient)" />
  
  <!-- Stars with animation -->
  <g id="stars" filter="url(#glow)">
    <circle cx="100" cy="100" r="1.5" fill="white" opacity="0.8">
      <animate attributeName="opacity" values="0.8;0.2;0.8" dur="4s" repeatCount="indefinite" />
    </circle>
    <circle cx="200" cy="150" r="1" fill="white" opacity="0.6">
      <animate attributeName="opacity" values="0.6;0.1;0.6" dur="6s" repeatCount="indefinite" />
    </circle>
    <circle cx="300" cy="80" r="2" fill="white" opacity="0.9">
      <animate attributeName="opacity" values="0.9;0.3;0.9" dur="5s" repeatCount="indefinite" />
    </circle>
    <circle cx="400" cy="120" r="1.2" fill="white" opacity="0.7">
      <animate attributeName="opacity" values="0.7;0.2;0.7" dur="7s" repeatCount="indefinite" />
    </circle>
    <circle cx="500" cy="70" r="1.8" fill="white" opacity="0.8">
      <animate attributeName="opacity" values="0.8;0.3;0.8" dur="3s" repeatCount="indefinite" />
    </circle>
    <circle cx="600" cy="200" r="1.3" fill="white" opacity="0.7">
      <animate attributeName="opacity" values="0.7;0.1;0.7" dur="5s" repeatCount="indefinite" />
    </circle>
    <circle cx="700" cy="90" r="1" fill="white" opacity="0.6">
      <animate attributeName="opacity" values="0.6;0.2;0.6" dur="6s" repeatCount="indefinite" />
    </circle>
    <circle cx="800" cy="130" r="1.6" fill="white" opacity="0.8">
      <animate attributeName="opacity" values="0.8;0.3;0.8" dur="4s" repeatCount="indefinite" />
    </circle>
    <circle cx="900" cy="180" r="1.2" fill="white" opacity="0.7">
      <animate attributeName="opacity" values="0.7;0.2;0.7" dur="7s" repeatCount="indefinite" />
    </circle>
    <circle cx="1000" cy="60" r="1.5" fill="white" opacity="0.8">
      <animate attributeName="opacity" values="0.8;0.3;0.8" dur="5s" repeatCount="indefinite" />
    </circle>
    <circle cx="1100" cy="140" r="1" fill="white" opacity="0.6">
      <animate attributeName="opacity" values="0.6;0.1;0.6" dur="6s" repeatCount="indefinite" />
    </circle>
    <!-- More animated stars scattered around -->
    <circle cx="150" cy="220" r="1.2" fill="white" opacity="0.7">
      <animate attributeName="opacity" values="0.7;0.2;0.7" dur="5s" repeatCount="indefinite" />
    </circle>
    <circle cx="250" cy="40" r="1.8" fill="white" opacity="0.8">
      <animate attributeName="opacity" values="0.8;0.3;0.8" dur="4s" repeatCount="indefinite" />
    </circle>
    <circle cx="350" cy="190" r="1" fill="white" opacity="0.6">
      <animate attributeName="opacity" values="0.6;0.1;0.6" dur="6s" repeatCount="indefinite" />
    </circle>
    <circle cx="450" cy="30" r="1.5" fill="white" opacity="0.7">
      <animate attributeName="opacity" values="0.7;0.2;0.7" dur="7s" repeatCount="indefinite" />
    </circle>
    <circle cx="550" cy="160" r="1.2" fill="white" opacity="0.7">
      <animate attributeName="opacity" values="0.7;0.2;0.7" dur="5s" repeatCount="indefinite" />
    </circle>
    <circle cx="650" cy="50" r="1.8" fill="white" opacity="0.8">
      <animate attributeName="opacity" values="0.8;0.3;0.8" dur="3s" repeatCount="indefinite" />
    </circle>
    <circle cx="750" cy="210" r="1" fill="white" opacity="0.6">
      <animate attributeName="opacity" values="0.6;0.1;0.6" dur="6s" repeatCount="indefinite" />
    </circle>
    <circle cx="850" cy="70" r="1.5" fill="white" opacity="0.8">
      <animate attributeName="opacity" values="0.8;0.2;0.8" dur="4s" repeatCount="indefinite" />
    </circle>
    <circle cx="950" cy="170" r="1.2" fill="white" opacity="0.7">
      <animate attributeName="opacity" values="0.7;0.2;0.7" dur="7s" repeatCount="indefinite" />
    </circle>
    <circle cx="1050" cy="25" r="1.8" fill="white" opacity="0.8">
      <animate attributeName="opacity" values="0.8;0.3;0.8" dur="5s" repeatCount="indefinite" />
    </circle>
    <circle cx="1150" cy="190" r="1" fill="white" opacity="0.6">
      <animate attributeName="opacity" values="0.6;0.1;0.6" dur="6s" repeatCount="indefinite" />
    </circle>
  </g>
  
  <!-- Moon with 3D effect -->
  <circle cx="950" cy="150" r="60" fill="#FFFDE7">
    <animate attributeName="r" values="60;61;60" dur="10s" repeatCount="indefinite" />
  </circle>
  <circle cx="930" cy="130" r="15" fill="#E0E0E0" opacity="0.5" />
  <circle cx="970" cy="180" r="20" fill="#E0E0E0" opacity="0.5" />
  <circle cx="980" cy="130" r="18" fill="#E0E0E0" opacity="0.3" />
  <circle cx="920" cy="160" r="12" fill="#E0E0E0" opacity="0.4" />
  <circle cx="950" cy="150" r="120" fill="url(#moonGlow)" />
  
  <!-- Falling Stars (animated) -->
  <g id="fallingStars">
    <!-- Falling star 1 -->
    <path d="M300,100 L350,180" stroke="url(#star1)" stroke-width="2" stroke-linecap="round">
      <animate attributeName="d" 
        values="M300,100 L350,180; 
                M340,100 L390,180; 
                M380,100 L430,180; 
                M420,100 L470,180; 
                M460,100 L510,180; 
                M500,100 L550,180;
                M540,100 L590,180;
                M580,100 L630,180;
                M620,100 L670,180;
                M660,100 L710,180;
                M700,100 L750,180" 
        dur="5s" repeatCount="indefinite" />
    </path>
    
    <!-- Falling star trail -->
    <path d="M300,100 L350,180" stroke="url(#star1)" stroke-width="4" stroke-linecap="round" opacity="0.5">
      <animate attributeName="d" 
        values="M300,100 L350,180; 
                M340,100 L390,180; 
                M380,100 L430,180; 
                M420,100 L470,180; 
                M460,100 L510,180; 
                M500,100 L550,180;
                M540,100 L590,180;
                M580,100 L630,180;
                M620,100 L670,180;
                M660,100 L710,180;
                M700,100 L750,180" 
        dur="5s" repeatCount="indefinite" />
      <animate attributeName="opacity" 
        values="0.5;0.2;0" 
        dur="5s" repeatCount="indefinite" />
    </path>
    
    <!-- Falling star 2 (different path and timing) -->
    <path d="M830,50 L870,150" stroke="url(#star2)" stroke-width="2" stroke-linecap="round">
      <animate attributeName="d" 
        values="M830,50 L870,150; 
                M860,50 L900,150; 
                M890,50 L930,150; 
                M920,50 L960,150; 
                M950,50 L990,150; 
                M980,50 L1020,150;
                M1010,50 L1050,150;
                M1040,50 L1080,150;
                M1070,50 L1110,150;
                M1100,50 L1140,150;
                M830,50 L870,150" 
        dur="7s" repeatCount="indefinite" />
    </path>
    
    <!-- Falling star 2 trail -->
    <path d="M830,50 L870,150" stroke="url(#star2)" stroke-width="4" stroke-linecap="round" opacity="0.5">
      <animate attributeName="d" 
        values="M830,50 L870,150; 
                M860,50 L900,150; 
                M890,50 L930,150; 
                M920,50 L960,150; 
                M950,50 L990,150; 
                M980,50 L1020,150;
                M1010,50 L1050,150;
                M1040,50 L1080,150;
                M1070,50 L1110,150;
                M1100,50 L1140,150;
                M830,50 L870,150" 
        dur="7s" repeatCount="indefinite" />
      <animate attributeName="opacity" 
        values="0.5;0.2;0" 
        dur="7s" repeatCount="indefinite" />
    </path>
  </g>

  <!-- Distant mountains with 3D effect -->
  <path d="M0,500 L200,400 L300,450 L400,380 L500,460 L600,380 L700,430 L800,370 L900,460 L1000,400 L1100,450 L1200,420 L1200,800 L0,800 Z" fill="url(#farMountains)" />
  
  <!-- Closer mountains with 3D effect -->
  <path d="M0,550 L100,500 L200,570 L300,490 L400,570 L500,480 L600,550 L700,470 L800,560 L900,490 L1000,570 L1100,500 L1200,560 L1200,800 L0,800 Z" fill="url(#nearMountains)" />
  
  <!-- Castle silhouette with enhanced 3D effects -->
  <g id="castle" transform="translate(400, 350)">
    <!-- Main castle keep with depth -->
    <rect x="100" y="100" width="200" height="300" fill="url(#keepFront)" />
    <polygon points="300,100 320,120 320,420 300,400" fill="url(#towerRight)" />
    <polygon points="100,100 80,120 80,420 100,400" fill="url(#towerLeft)" />
    
    <!-- Castle towers with 3D -->
    <rect x="80" y="80" width="40" height="320" fill="url(#towerLeft)" />
    <rect x="75" y="50" width="50" height="30" fill="#0F1A30" />
    <path d="M75,50 L85,30 L95,50 L105,30 L115,50 L125,30" fill="none" stroke="#0F1A30" stroke-width="3" />
    
    <rect x="280" y="80" width="40" height="320" fill="url(#towerRight)" />
    <rect x="275" y="50" width="50" height="30" fill="#0F1A30" />
    <path d="M275,50 L285,30 L295,50 L305,30 L315,50 L325,30" fill="none" stroke="#0F1A30" stroke-width="3" />
    
    <!-- Center tower with 3D -->
    <rect x="175" y="40" width="50" height="60" fill="#0D172A" />
    <polygon points="225,40 235,50 235,100 225,100" fill="url(#towerRight)" />
    <polygon points="175,40 165,50 165,100 175,100" fill="url(#towerLeft)" />
    <path d="M175,40 L185,20 L195,40 L205,20 L215,40 L225,20" fill="none" stroke="#0D172A" stroke-width="3" />
    
    <!-- Castle windows (glowing with animation) -->
    <rect x="110" y="130" width="20" height="30" fill="#FFE082" opacity="0.7">
      <animate attributeName="opacity" values="0.7;0.9;0.7" dur="3s" repeatCount="indefinite" />
    </rect>
    <rect x="170" y="130" width="20" height="30" fill="#FFE082" opacity="0.7">
      <animate attributeName="opacity" values="0.7;0.9;0.7" dur="5s" repeatCount="indefinite" />
    </rect>
    <rect x="230" y="130" width="20" height="30" fill="#FFE082" opacity="0.7">
      <animate attributeName="opacity" values="0.7;0.9;0.7" dur="4s" repeatCount="indefinite" />
    </rect>
    
    <rect x="110" y="200" width="20" height="30" fill="#FFE082" opacity="0.7">
      <animate attributeName="opacity" values="0.7;0.9;0.7" dur="6s" repeatCount="indefinite" />
    </rect>
    <rect x="170" y="200" width="20" height="30" fill="#FFE082" opacity="0.7">
      <animate attributeName="opacity" values="0.7;0.9;0.7" dur="7s" repeatCount="indefinite" />
    </rect>
    <rect x="230" y="200" width="20" height="30" fill="#FFE082" opacity="0.7">
      <animate attributeName="opacity" values="0.7;0.9;0.7" dur="4s" repeatCount="indefinite" />
    </rect>
    
    <rect x="90" y="150" width="15" height="20" fill="#FFE082" opacity="0.7">
      <animate attributeName="opacity" values="0.7;0.9;0.7" dur="5s" repeatCount="indefinite" />
    </rect>
    <rect x="90" y="220" width="15" height="20" fill="#FFE082" opacity="0.7">
      <animate attributeName="opacity" values="0.7;0.9;0.7" dur="3s" repeatCount="indefinite" />
    </rect>
    
    <rect x="295" y="150" width="15" height="20" fill="#FFE082" opacity="0.7">
      <animate attributeName="opacity" values="0.7;0.9;0.7" dur="6s" repeatCount="indefinite" />
    </rect>
    <rect x="295" y="220" width="15" height="20" fill="#FFE082" opacity="0.7">
      <animate attributeName="opacity" values="0.7;0.9;0.7" dur="4s" repeatCount="indefinite" />
    </rect>
    
    <!-- Castle gate with 3D arch -->
    <path d="M170,350 Q200,320 230,350" fill="#0B1326" stroke="#0B1326" stroke-width="2" />
    <rect x="190" y="320" width="20" height="30" fill="#3E2723" />
    <!-- Drawbridge chains -->
    <line x1="180" y1="320" x2="180" y2="350" stroke="#5D4037" stroke-width="2" />
    <line x1="220" y1="320" x2="220" y2="350" stroke="#5D4037" stroke-width="2" />
  </g>
  
  <!-- Ground/hill with 3D depth -->
  <path d="M0,650 C200,630 400,670 600,640 C800,610 1000,660 1200,630 L1200,800 L0,800 Z" fill="#0A1B2A" />
  
  <!-- Foreground trees with more depth -->
  <g id="trees">
    <!-- Left side trees with shadows -->
    <path d="M100,650 L110,620 L120,650 L100,650 Z" fill="#0D2843" />
    <path d="M105,620 L115,590 L125,620 L105,620 Z" fill="#0D2843" />
    <path d="M110,590 L120,560 L130,590 L110,590 Z" fill="#0D2843" />
    <rect x="108" y="650" width="4" height="20" fill="#071520" />
    
    <!-- Right side trees with shadows -->
    <path d="M1050,650 L1060,620 L1070,650 L1050,650 Z" fill="#0D2843" />
    <path d="M1055,620 L1065,590 L1075,620 L1055,620 Z" fill="#0D2843" />
    <path d="M1060,590 L1070,560 L1080,590 L1060,590 Z" fill="#0D2843" />
    <rect x="1058" y="650" width="4" height="20" fill="#071520" />
    
    <!-- More foreground trees with trunks -->
    <path d="M200,670 L210,640 L220,670 L200,670 Z" fill="#0D2843" />
    <path d="M205,640 L215,610 L225,640 L205,640 Z" fill="#0D2843" />
    <rect x="208" y="670" width="4" height="15" fill="#071520" />
    
    <path d="M950,670 L960,640 L970,670 L950,670 Z" fill="#0D2843" />
    <path d="M955,640 L965,610 L975,640 L955,640 Z" fill="#0D2843" />
    <rect x="958" y="670" width="4" height="15" fill="#071520" />
  </g>
  
  <!-- Animated fog effect -->
  <rect x="0" y="600" width="1200" height="200" fill="url(#skyGradient)" opacity="0.2" filter="url(#fog)">
    <animate attributeName="opacity" values="0.2;0.3;0.2" dur="15s" repeatCount="indefinite" />
  </rect>
</svg>