<?xml version="1.0" encoding="UTF-8"?>
<svg width="100" height="100" viewBox="0 0 100 100" xmlns="http://www.w3.org/2000/svg">
  <circle cx="50" cy="50" r="45" fill="#FF6347" />
  <path d="M30 40 L40 35 L35 40 L45 40" stroke="#333" stroke-width="3" fill="none" />
  <path d="M55 40 L65 40 L60 35 L70 40" stroke="#333" stroke-width="3" fill="none" />
  <path d="M35 55 C40 68 60 68 65 55" stroke="#333" stroke-width="4" fill="none" />
  <path d="M20 25 L30 15 L40 25" stroke="#D43F22" stroke-width="3" fill="none" />
  <path d="M60 25 L70 15 L80 25" stroke="#D43F22" stroke-width="3" fill="none" />
  <path d="M50 15 L50 25" stroke="#333" stroke-width="3" />
  <circle cx="50" cy="50" r="47" stroke="#D43F22" stroke-width="2" fill="none" />
  <path d="M15 75 L25 65 L35 75" stroke="#D43F22" stroke-width="2" fill="none" />
  <path d="M65 75 L75 65 L85 75" stroke="#D43F22" stroke-width="2" fill="none" />
</svg>