<?xml version="1.0" encoding="UTF-8"?>
<svg width="100" height="100" viewBox="0 0 100 100" xmlns="http://www.w3.org/2000/svg">
  <circle cx="50" cy="50" r="45" fill="#9370DB" />
  <path d="M30 45 Q37 40 35 45 Q37 50 30 45" fill="#333" />
  <path d="M70 45 Q63 40 65 45 Q63 50 70 45" fill="#333" />
  <path d="M35 65 Q50 60 65 65" stroke="#333" stroke-width="4" fill="none" />
  <path d="M75 30 Q70 35 65 30" stroke="#7949CC" stroke-width="3" fill="none" />
  <path d="M35 30 Q30 35 25 30" stroke="#7949CC" stroke-width="3" fill="none" />
  <circle cx="50" cy="50" r="47" stroke="#7949CC" stroke-width="2" fill="none" />
  <path d="M15 25 Q30 20 25 35" stroke="#7949CC" stroke-width="2" fill="none" />
  <path d="M85 25 Q70 20 75 35" stroke="#7949CC" stroke-width="2" fill="none" />
  <path d="M50 15 Q55 10 60 15" stroke="#7949CC" stroke-width="2" fill="none" />
</svg>