<svg xmlns="http://www.w3.org/2000/svg" width="400" height="300" viewBox="0 0 400 300">
  <!-- Background -->
  <rect width="400" height="300" fill="#e6f7ff"/>
  
  <!-- Sky -->
  <rect width="400" height="150" fill="#87ceeb"/>
  
  <!-- Sun -->
  <circle cx="350" cy="50" r="30" fill="#ffeb3b"/>
  
  <!-- Hills -->
  <path d="M0,150 Q100,100 200,150 T400,150 L400,300 L0,300 Z" fill="#a5d6a7"/>
  
  <!-- Forest Background -->
  <g transform="translate(0, 130) scale(0.8)">
    <rect x="0" y="0" width="20" height="80" fill="#8d6e63"/>
    <circle cx="10" cy="-10" r="25" fill="#66bb6a"/>
    
    <rect x="50" y="20" width="15" height="60" fill="#8d6e63"/>
    <circle cx="58" cy="0" r="20" fill="#81c784"/>
    
    <rect x="100" y="0" width="20" height="80" fill="#8d6e63"/>
    <circle cx="110" cy="-20" r="30" fill="#66bb6a"/>
    
    <rect x="150" y="20" width="15" height="60" fill="#8d6e63"/>
    <circle cx="158" cy="0" r="20" fill="#81c784"/>
    
    <rect x="350" y="0" width="20" height="80" fill="#8d6e63"/>
    <circle cx="360" cy="-20" r="30" fill="#66bb6a"/>
    
    <rect x="400" y="20" width="15" height="60" fill="#8d6e63"/>
    <circle cx="408" cy="0" r="20" fill="#81c784"/>
    
    <rect x="450" y="0" width="20" height="80" fill="#8d6e63"/>
    <circle cx="460" cy="-20" r="30" fill="#66bb6a"/>
  </g>
  
  <!-- Little Fox -->
  <g transform="translate(130, 200) scale(0.8)">
    <!-- Body -->
    <ellipse cx="0" cy="0" rx="40" ry="25" fill="#ff8c00"/>
    
    <!-- Head -->
    <circle cx="-30" cy="0" r="25" fill="#ff8c00"/>
    
    <!-- Ears -->
    <polygon points="-50,-5 -55,-25 -45,-10" fill="#ff8c00"/>
    <polygon points="-45,10 -60,20 -40,20" fill="#ff8c00"/>
    
    <!-- Face -->
    <circle cx="-35" cy="-5" r="3" fill="#000"/>
    <ellipse cx="-45" cy="0" rx="8" ry="5" fill="#fff"/>
    <ellipse cx="-45" cy="5" rx="5" ry="3" fill="#000"/>
    
    <!-- Legs -->
    <rect x="-20" y="20" width="8" height="20" rx="4" fill="#ff8c00"/>
    <rect x="15" y="20" width="8" height="20" rx="4" fill="#ff8c00"/>
    
    <!-- Tail -->
    <path d="M35,0 Q55,10 50,-15" fill="none" stroke="#ff8c00" stroke-width="10" stroke-linecap="round"/>
  </g>
  
  <!-- Butterfly -->
  <g transform="translate(250, 150)">
    <path d="M0,0 Q10,5 0,10 Q-10,5 0,0" fill="#f48fb1" stroke="#ec407a" stroke-width="1"/>
    <path d="M0,0 Q-10,-5 0,-10 Q10,-5 0,0" fill="#f48fb1" stroke="#ec407a" stroke-width="1"/>
    <line x1="0" y1="0" x2="10" y2="15" stroke="#000" stroke-width="1"/>
    <circle cx="10" cy="15" r="3" fill="#000"/>
  </g>
</svg>
