<svg xmlns="http://www.w3.org/2000/svg" width="400" height="300" viewBox="0 0 400 300">
  <!-- Background -->
  <rect width="400" height="300" fill="#e6f7ff"/>
  
  <!-- Sky -->
  <rect width="400" height="150" fill="#87ceeb"/>
  
  <!-- Sun -->
  <circle cx="350" cy="50" r="30" fill="#ffeb3b"/>
  
  <!-- Hills -->
  <path d="M0,150 Q100,100 200,150 T400,150 L400,300 L0,300 Z" fill="#a5d6a7"/>
  
  <!-- Little Fox -->
  <g transform="translate(180, 200) scale(0.8)">
    <!-- Body -->
    <ellipse cx="0" cy="0" rx="40" ry="25" fill="#ff8c00"/>
    
    <!-- Head -->
    <circle cx="-30" cy="0" r="25" fill="#ff8c00"/>
    
    <!-- Ears -->
    <polygon points="-50,-5 -55,-25 -45,-10" fill="#ff8c00"/>
    <polygon points="-45,10 -60,20 -40,20" fill="#ff8c00"/>
    
    <!-- Face -->
    <circle cx="-35" cy="-5" r="3" fill="#000"/>
    <ellipse cx="-45" cy="0" rx="8" ry="5" fill="#fff"/>
    <ellipse cx="-45" cy="5" rx="5" ry="3" fill="#000"/>
    
    <!-- Legs -->
    <rect x="-20" y="20" width="8" height="20" rx="4" fill="#ff8c00"/>
    <rect x="15" y="20" width="8" height="20" rx="4" fill="#ff8c00"/>
    
    <!-- Tail -->
    <path d="M35,0 Q55,10 50,-15" fill="none" stroke="#ff8c00" stroke-width="10" stroke-linecap="round"/>
  </g>
  
  <!-- Tree -->
  <rect x="50" y="100" width="20" height="100" fill="#8d6e63"/>
  <circle cx="60" cy="80" r="40" fill="#66bb6a"/>
  
  <!-- Flower -->
  <line x1="320" y1="200" x2="320" y2="180" stroke="#4caf50" stroke-width="3"/>
  <circle cx="320" cy="170" r="10" fill="#f48fb1"/>
  <circle cx="330" cy="180" r="10" fill="#f48fb1"/>
  <circle cx="310" cy="180" r="10" fill="#f48fb1"/>
  <circle cx="320" cy="190" r="10" fill="#f48fb1"/>
  <circle cx="320" cy="180" r="8" fill="#ffeb3b"/>
</svg>
