<svg xmlns="http://www.w3.org/2000/svg" width="150" height="150" viewBox="0 0 150 150">
  <!-- Bear character for loading animation -->
  <g id="bear-character">
    <!-- Body -->
    <ellipse cx="75" cy="90" rx="40" ry="30" fill="#8B4513" />
    
    <!-- Head -->
    <circle cx="75" cy="60" r="30" fill="#8B4513" />
    
    <!-- Ears -->
    <circle cx="50" cy="40" r="10" fill="#8B4513" />
    <circle cx="100" cy="40" r="10" fill="#8B4513" />
    <circle cx="50" cy="40" r="5" fill="#FFD700" />
    <circle cx="100" cy="40" r="5" fill="#FFD700" />
    
    <!-- Eyes -->
    <g id="eyes">
      <circle cx="60" cy="60" r="7" fill="#ffffff" />
      <circle cx="90" cy="60" r="7" fill="#ffffff" />
      <circle cx="60" cy="60" r="3" fill="#000000" />
      <circle cx="90" cy="60" r="3" fill="#000000" />
    </g>
    
    <!-- Nose -->
    <circle cx="75" cy="70" r="8" fill="#000000" />
    
    <!-- Mouth -->
    <path d="M65,80 Q75,90 85,80" fill="none" stroke="#000000" stroke-width="2" />
    
    <!-- Legs -->
    <rect x="50" y="110" width="15" height="20" rx="5" fill="#8B4513" />
    <rect x="85" y="110" width="15" height="20" rx="5" fill="#8B4513" />
    
    <!-- Arms -->
    <rect x="40" y="80" width="15" height="25" rx="5" fill="#8B4513" transform="rotate(30, 40, 80)" />
    <rect x="95" y="80" width="15" height="25" rx="5" fill="#8B4513" transform="rotate(-30, 95, 80)" />
  </g>
</svg>
