<svg xmlns="http://www.w3.org/2000/svg" width="100" height="100" viewBox="0 0 100 100">
  <circle cx="50" cy="50" r="48" fill="#ffd699" stroke="#ff8c00" stroke-width="2"/>
  
  <!-- Face -->
  <path d="M50,30 C35,30 25,45 25,65 C25,85 75,85 75,65 C75,45 65,30 50,30 Z" fill="#ff8c00"/>
  
  <!-- Ears -->
  <path d="M25,45 L30,25 L40,40 Z" fill="#ff8c00"/>
  <path d="M75,45 L70,25 L60,40 Z" fill="#ff8c00"/>
  <path d="M30,40 L32,32 L36,38 Z" fill="#fff"/>
  <path d="M70,40 L68,32 L64,38 Z" fill="#fff"/>
  
  <!-- Eyes -->
  <circle cx="40" cy="50" r="5" fill="#fff"/>
  <circle cx="60" cy="50" r="5" fill="#fff"/>
  <circle cx="40" cy="50" r="2" fill="#000"/>
  <circle cx="60" cy="50" r="2" fill="#000"/>
  
  <!-- Nose -->
  <ellipse cx="50" cy="60" rx="5" ry="3" fill="#333"/>
  
  <!-- Mouth -->
  <path d="M45,65 Q50,70 55,65" fill="none" stroke="#333" stroke-width="1.5"/>
</svg>
