<svg xmlns="http://www.w3.org/2000/svg" width="100" height="100" viewBox="0 0 100 100">
  <circle cx="50" cy="50" r="48" fill="#f0f0f0" stroke="#e0e0e0" stroke-width="2"/>
  
  <!-- Face -->
  <path d="M50,35 C35,35 25,45 25,65 C25,85 75,85 75,65 C75,45 65,35 50,35 Z" fill="#ffffff"/>
  
  <!-- Ears -->
  <path d="M40,35 L35,10 L45,35 Z" fill="#f0f0f0" stroke="#e0e0e0" stroke-width="1.5"/>
  <path d="M60,35 L65,10 L55,35 Z" fill="#f0f0f0" stroke="#e0e0e0" stroke-width="1.5"/>
  <path d="M40,35 L37,15 L42,30 Z" fill="#ffcccc"/>
  <path d="M60,35 L63,15 L58,30 Z" fill="#ffcccc"/>
  
  <!-- Eyes -->
  <circle cx="40" cy="50" r="5" fill="#fff"/>
  <circle cx="60" cy="50" r="5" fill="#fff"/>
  <circle cx="40" cy="50" r="2" fill="#ff6666"/>
  <circle cx="60" cy="50" r="2" fill="#ff6666"/>
  
  <!-- Nose -->
  <path d="M48,58 L50,60 L52,58 L50,62 Z" fill="#ff9999"/>
  
  <!-- Mouth -->
  <path d="M45,65 Q50,68 55,65" fill="none" stroke="#ffcccc" stroke-width="1.5"/>
  
  <!-- Whiskers -->
  <line x1="45" y1="60" x2="30" y2="58" stroke="#e0e0e0" stroke-width="1"/>
  <line x1="45" y1="62" x2="30" y2="62" stroke="#e0e0e0" stroke-width="1"/>
  <line x1="55" y1="60" x2="70" y2="58" stroke="#e0e0e0" stroke-width="1"/>
  <line x1="55" y1="62" x2="70" y2="62" stroke="#e0e0e0" stroke-width="1"/>
</svg>
