<svg xmlns="http://www.w3.org/2000/svg" width="150" height="150" viewBox="0 0 150 150">
  <rect width="150" height="150" fill="#f8f8f8" rx="10" ry="10"/>
  
  <!-- Cow silhouette -->
  <path d="M30,100 C30,80 45,80 45,80 L45,70 C45,70 30,70 35,60 C35,60 40,55 45,60 L50,60 C50,60 50,55 55,60 L75,60 C75,60 80,55 85,60 C85,60 90,55 95,60 C95,60 100,70 85,70 L85,80 C85,80 100,80 100,100 L30,100 Z" fill="#8a5fff"/>
  <circle cx="45" cy="85" r="5" fill="#fff"/>
  <circle cx="85" cy="85" r="5" fill="#fff"/>
  
  <!-- Sound waves -->
  <path d="M110,75 Q120,65 110,55" fill="none" stroke="#333" stroke-width="2"/>
  <path d="M115,80 Q130,65 115,50" fill="none" stroke="#333" stroke-width="2"/>
  <path d="M120,85 Q140,65 120,45" fill="none" stroke="#333" stroke-width="2"/>
  
  <!-- Speech bubble with "MOO!" -->
  <path d="M115,100 L105,90 L105,95 C105,105 130,105 130,95 L130,80 C130,70 105,70 105,80 L105,85 L115,100" fill="#fff" stroke="#333" stroke-width="2"/>
  <text x="117.5" y="90" font-family="Arial" font-size="12" font-weight="bold" text-anchor="middle">MOO!</text>
</svg>
