<svg width="300" height="300" xmlns="http://www.w3.org/2000/svg">
  <!-- Background -->
  <rect width="300" height="300" fill="#fff" rx="10" ry="10"/>
  
  <!-- Outline drawing for coloring -->
  <!-- Sun -->
  <circle cx="50" cy="50" r="30" fill="none" stroke="#000" stroke-width="2"/>
  <line x1="20" y1="20" x2="10" y2="10" stroke="#000" stroke-width="2"/>
  <line x1="80" y1="20" x2="90" y2="10" stroke="#000" stroke-width="2"/>
  <line x1="20" y1="80" x2="10" y2="90" stroke="#000" stroke-width="2"/>
  <line x1="80" y1="80" x2="90" y2="90" stroke="#000" stroke-width="2"/>
  <line x1="50" y1="10" x2="50" y2="0" stroke="#000" stroke-width="2"/>
  <line x1="10" y1="50" x2="0" y2="50" stroke="#000" stroke-width="2"/>
  <line x1="90" y1="50" x2="100" y2="50" stroke="#000" stroke-width="2"/>
  <line x1="50" y1="90" x2="50" y2="100" stroke="#000" stroke-width="2"/>
  
  <!-- House -->
  <rect x="120" y="150" width="100" height="80" fill="none" stroke="#000" stroke-width="2"/>
  <polygon points="120,150 170,100 220,150" fill="none" stroke="#000" stroke-width="2"/>
  <rect x="150" y="180" width="40" height="50" fill="none" stroke="#000" stroke-width="2"/>
  <circle cx="180" cy="205" r="5" fill="none" stroke="#000" stroke-width="2"/>
  
  <!-- Tree -->
  <rect x="250" y="170" width="20" height="60" fill="none" stroke="#000" stroke-width="2"/>
  <circle cx="260" cy="150" r="30" fill="none" stroke="#000" stroke-width="2"/>
  
  <!-- Flower -->
  <circle cx="50" cy="200" r="10" fill="none" stroke="#000" stroke-width="2"/>
  <circle cx="35" cy="185" r="10" fill="none" stroke="#000" stroke-width="2"/>
  <circle cx="65" cy="185" r="10" fill="none" stroke="#000" stroke-width="2"/>
  <circle cx="35" cy="215" r="10" fill="none" stroke="#000" stroke-width="2"/>
  <circle cx="65" cy="215" r="10" fill="none" stroke="#000" stroke-width="2"/>
  <line x1="50" y1="220" x2="50" y2="270" stroke="#000" stroke-width="2"/>
  <path d="M50,240 Q40,235 45,250" fill="none" stroke="#000" stroke-width="2"/>
  
  <!-- Clouds -->
  <circle cx="100" cy="50" r="15" fill="none" stroke="#000" stroke-width="2"/>
  <circle cx="125" cy="50" r="20" fill="none" stroke="#000" stroke-width="2"/>
  <circle cx="150" cy="50" r="15" fill="none" stroke="#000" stroke-width="2"/>
  
  <circle cx="200" cy="70" r="15" fill="none" stroke="#000" stroke-width="2"/>
  <circle cx="225" cy="70" r="20" fill="none" stroke="#000" stroke-width="2"/>
  <circle cx="250" cy="70" r="15" fill="none" stroke="#000" stroke-width="2"/>
  
  <!-- Grass -->
  <path d="M0,270 Q10,250 20,270 Q30,250 40,270 Q50,250 60,270 Q70,250 80,270 Q90,250 100,270 
           Q110,250 120,270 Q130,250 140,270 Q150,250 160,270 Q170,250 180,270 Q190,250 200,270 
           Q210,250 220,270 Q230,250 240,270 Q250,250 260,270 Q270,250 280,270 Q290,250 300,270 
           L300,300 L0,300 Z" fill="none" stroke="#000" stroke-width="2"/>
</svg>
